<svg width="80" height="114" viewBox="0 0 80 114" fill="none" xmlns="http://www.w3.org/2000/svg">
<path d="M23 107.667C23 110.783 25.55 113.333 28.6667 113.333H51.3334C54.45 113.333 57 110.783 57 107.667V102H23V107.667ZM40 0C18.1267 0 0.333374 17.7933 0.333374 39.6667C0.333374 53.1533 7.07671 64.9967 17.3334 72.1933V85C17.3334 88.1167 19.8834 90.6667 23 90.6667H57C60.1167 90.6667 62.6667 88.1167 62.6667 85V72.1933C72.9234 64.9967 79.6667 53.1533 79.6667 39.6667C79.6667 17.7933 61.8734 0 40 0ZM56.15 62.9L51.3334 66.3V79.3333H28.6667V66.3L23.85 62.9C16.2 57.5733 11.6667 48.9033 11.6667 39.6667C11.6667 24.0267 24.36 11.3333 40 11.3333C55.64 11.3333 68.3334 24.0267 68.3334 39.6667C68.3334 48.9033 63.8 57.5733 56.15 62.9Z" fill="white"/>
</svg>
