<svg width="192" height="91" viewBox="0 0 192 91" fill="none" xmlns="http://www.w3.org/2000/svg">
<path d="M16.0994 56.7547C25.8883 62.3211 39.5029 66.7312 55.4956 69.5347C63.7531 80.1278 76.6165 90.1271 95.7551 90.1271C114.898 90.1271 127.78 80.1213 136.058 69.5259C151.887 66.749 165.383 62.3988 175.155 56.9007C185.86 50.8779 191.52 43.8028 191.52 36.4392C191.52 26.4945 181.312 17.227 162.779 10.3439C144.817 3.67419 121.016 1.69927e-05 95.76 1.69927e-05C70.5043 1.69927e-05 46.7003 3.67419 28.7411 10.3439C10.2079 17.227 1.18971e-05 26.4945 1.18971e-05 36.4392C-0.00210589 43.7394 5.56689 50.7646 16.1049 56.7543L16.0994 56.7547ZM95.7535 85.5341C78.7359 85.5341 67.3594 74.5776 60.8147 65.3878C53.3805 54.9525 50.3249 44.3302 50.2957 44.2248C49.9802 43.1039 48.3604 42.3108 46.5268 42.3108C46.315 42.3108 46.0991 42.321 45.8831 42.3439C43.7995 42.5548 42.3958 43.7406 42.7494 44.9911C42.9167 45.5808 44.329 50.4216 47.4775 56.7291C30.9618 52.1462 21.3215 45.5211 21.3215 38.5095C21.3215 32.3406 28.7681 26.4348 42.2901 21.8835C56.5102 17.096 75.4971 14.4603 95.7562 14.4603C116.015 14.4603 135.002 17.0962 149.222 21.8835C162.744 26.4358 170.189 32.3393 170.189 38.5095C170.189 45.5133 160.574 52.1296 144.096 56.7112C147.249 50.415 148.668 45.5833 148.835 44.9934C149.188 43.7428 147.789 42.5571 145.705 42.3449C143.622 42.1301 141.646 42.9727 141.291 44.222C141.261 44.3287 138.187 54.951 130.733 65.3863C124.169 74.5761 112.773 85.5339 95.7542 85.5339L95.7535 85.5341ZM32.762 14.25C49.5298 8.02248 71.9017 4.59362 95.7535 4.59362C119.605 4.59362 141.982 8.02378 158.75 14.25C174.946 20.2651 183.865 28.1447 183.865 36.4398C183.865 47.7698 166.898 58.2548 139.994 63.9472C140.306 63.4579 140.608 62.9724 140.901 62.4894C164.057 57.2178 177.839 48.2974 177.839 38.5089C177.839 30.6052 169.005 23.2773 152.961 17.8772C137.616 12.7122 117.3 9.86673 95.7535 9.86673C74.2065 9.86673 53.8889 12.711 38.5456 17.8772C22.5042 23.2773 13.6683 30.6052 13.6683 38.5089C13.6683 48.3035 27.4716 57.2318 50.6588 62.5021C50.951 62.9851 51.2517 63.4693 51.5629 63.9573C24.6551 58.265 7.64448 47.7458 7.64448 36.4399C7.64659 28.1448 16.5672 20.2651 32.763 14.2501L32.762 14.25Z" fill="black"/>
</svg>
