<svg width="197" height="211" viewBox="0 0 197 211" fill="none" xmlns="http://www.w3.org/2000/svg">
<path d="M113.394 16.8754L92.5372 14.1124L68.9666 50.7895L39.6809 78.1808L23.1492 115.629L9.09125 138.941L31.2405 155.022C31.2405 155.022 49.4946 176.596 62.1878 181.27C74.0775 185.649 100.198 181.357 100.198 181.357L84.2345 182.904L115.869 200.29L141.335 149.442L159.365 129.62L181.724 64.9334L156.01 44.1732L135.492 66.7488L127.395 79.7345C127.395 79.7345 117.262 79.8642 112.998 77.5443C109.035 75.3882 104.211 68.1242 104.021 67.416C103.831 66.7077 117.948 41.6542 117.948 41.6542L113.394 16.8754ZM106.562 20.4136L106.622 21.3462L109.288 25.9707L108.493 34.6985L100.663 52.9263L93.436 55.4211L83.234 53.0407L86.5031 37.5724L93.6058 24.5805L106.562 20.4136ZM166.283 62.6758L169.139 73.2846L161.928 86.719L148.068 95.2616L143.253 78.7128L159.253 59.8145L166.283 62.6758Z" fill="#F8F8F8" stroke="black" stroke-width="2" stroke-linecap="round" stroke-linejoin="bevel"/>
<path d="M73.6672 62.4804C59.3744 70.0653 41.7995 77.4263 40.2618 95.9353C34.7764 106.143 37.8029 132.369 21.7724 128.693C26.5031 115.09 38.7023 101.447 44.6107 86.8757C52.2385 69.9456 63.2097 90.1277 55.4586 99.4141C56.3618 105.61 52.3391 126.879 46.9325 118.358C54.9522 108.912 55.4564 92.5777 65.3628 86.3144C66.6826 97.9989 53.8812 112.062 56.8023 126.366C59.8584 130.814 55.6335 146.134 51.4492 138.995C50.6952 129.358 72.0464 116.964 65.4301 133.057C53.8215 130.018 79.9685 128.762 72.3723 130.222C78.5885 122.072 88.8304 134.935 76.5782 131.141C86.3695 126.474 71.1549 139.848 68.3932 131.53C82.9308 131.299 51.2604 141.012 58.4906 127.024C74.4776 116.536 59.4856 150.292 50.3158 141.268C43.3271 128.729 51.6506 113.565 53.7875 100.473C52.3613 92.4235 67.4304 76.6942 68.2994 90.3875C63.7808 101.374 59.5904 117.514 49.2397 122.939C36.8928 116.017 51.9651 101.869 47.9717 90.7064C46.032 82.4929 60.5616 78.1917 52.8979 88.2933C45.2133 98.7553 39.9011 110.77 33.4452 122.049C31.8952 130.566 12.6571 133.706 24.1326 122.588C31.2042 106.086 28.8206 83.2609 46.1925 72.9285C54.8597 68.6946 63.3529 60.593 73.6672 62.4804Z" fill="#E6E2E2"/>
<path d="M26.2827 130.117C27.5449 140.512 36.7581 146.628 43.3102 153.604C54.1545 157.882 59.697 169.498 71.1892 172.199C113.575 188.068 52.6449 172.051 72.3115 172.626C77.6307 173.453 99.8589 176.809 95.8697 176.517C90.274 176.601 101.093 177.209 93.7768 177.48C89.0324 177.956 76.2551 178.774 75.4156 178.502C81.6681 176.813 67.9228 178.075 76.3561 177.054C81.116 176.388 90.3318 174.711 92.4824 177.113C85.3867 171.956 104.35 166.822 105.534 160.452C104.182 154.521 115.402 141.869 113.325 153.369C108.893 166.262 94.569 169.64 83.0643 173.379C77.9085 174.598 92.9758 174.529 96.4041 175.642C102.099 175.774 103.969 177.277 100.445 176.159C109.927 175.328 115.414 167.996 119.522 160.196C122.403 155.29 127.504 138.238 133.938 148.377C128.437 157.574 120.565 167.324 110.773 171.559C106.203 172.189 100.405 171.771 108.173 171.714C99.1474 173.628 89.881 172.206 81.1635 174.313C68.6575 176.999 75.7322 166.648 80.2988 172.048C73.6214 179.675 66.1615 169.308 70.8066 170.931C65.315 172.833 57.0488 167.805 67.3387 167.106C69.513 166.954 74.9207 167.233 69.2886 166.709C72.0024 163.467 84.1951 154.927 81.5472 162.559C74.3117 167.453 56.4339 174.901 52.9001 169.637C60.3539 164.548 64.4485 154.436 72.4055 151.688C76.1666 156.163 67.2656 168.434 59.9544 166.836C64.3714 167.902 42.1459 164.257 44.8521 166.38C31.229 162.384 55.0215 161.946 51.0464 165.234C44.3441 167.347 38.6503 159.073 48.9485 161.577C57.0855 162.826 53.8704 167.036 47.2303 164.999C42.9802 156.312 66.1295 167.864 52.8824 164.843C49.8643 157.465 47.0023 139.677 54.6961 143.131C43.2545 142.076 60.0086 139.721 57.9699 147.771C54.9983 155.336 68.1914 168.373 54.4823 167.682C46.5913 168.484 45.5715 158.718 54.0103 163.161C60.1848 172.317 34.2164 161.876 47.8258 161.07C59.4019 163.085 46.9757 169.964 41.7616 164.828C45.7842 162.24 66.1212 166.651 55.7039 166.357C58.5315 165.484 65.4935 165.238 58.8023 166.041C64.0502 162.361 67.0752 144.115 74.8856 152.662C71.3871 160.474 62.9951 170.125 55.2087 170.301C65.1022 172.183 76.5467 155.47 82.7983 161.921C80.4553 167.96 65.6308 169.672 65.0886 168.576C68.5174 167.542 73.9193 170.366 67.6966 169.907C74.5549 164.547 80.426 177.046 71.8175 171.52C88.1088 182.695 82.5202 175.039 78.536 174.835C79.4846 171.693 80.6966 172.105 83.1458 172.632C87.8806 171.78 101.799 171.071 103.711 170.91C107.851 170.186 114.817 169.829 106.553 170.581C115.276 164.432 121.393 156.062 127.705 147.73C139.625 143.607 125.825 161.378 122.985 166.494C119.09 175.628 107.771 176.56 99.2669 177.899C91.8019 177.437 76.1797 177.29 74.1409 173.726C82.9903 170.278 93.199 169.07 100.247 162.234C104.204 156.706 110.481 143.165 117.568 148.923C113.715 157.05 110.741 166.668 101.762 170.93C99.0817 177.853 84.9266 181.086 83.8598 177.236C84.3218 179.132 63.1351 179.029 76.399 177.12C83.2787 177.844 102.686 179.432 100.503 176.955C98.6003 178.203 90.6962 177.808 97.2609 177.558C86.5627 178.71 75.2265 176.106 65.1172 173.519C68.8015 170.097 86.9912 178.711 85.8335 178.114C76.8963 179.142 68.4975 174.151 59.8799 172.59C51.4308 166.871 44.3563 159.644 35.5797 154.499C29.6196 147.665 20.0453 142.465 19.3221 132.469C19.5432 128.992 23.982 129.504 26.2827 130.117Z" fill="#E6E2E2"/>
<path d="M102.886 64.2905C102.304 67.1042 104.107 69.6959 106.255 71.313C108.195 72.8454 110.271 74.2191 112.03 75.9653C116.445 79.4796 121.215 82.9241 126.828 84.1506C128.264 83.9826 125.185 84.3303 124.758 84.361C124.054 84.4633 120.64 84.7482 122.973 84.2439C125.609 83.6602 128.305 82.9483 131.026 83.4368C134.819 83.9576 138.628 86.2094 140.153 89.8294C141.071 91.7939 139.312 93.757 137.316 93.7766C134.071 94.0708 130.565 93.2078 128.073 91.0469C126.254 88.6436 122.87 88.5895 120.562 86.8625C119.239 84.8938 123.002 84.7545 124.331 84.5017C128.766 84.1497 133.073 86.1404 136.408 88.942C138.003 89.8229 140.155 90.2995 141.087 91.9549C139.818 93.0032 137.716 92.909 136.075 93.2813C132.789 93.2148 130.71 90.302 128.491 88.2916C127.378 87.1314 125.91 86.3877 124.496 85.7571C126.052 84.8153 128.326 85.0531 130.162 85.1026C128.335 85.3954 126.484 85.6275 124.657 86.0038C118.528 86.8837 112.11 84.9042 107.496 80.7855C103.261 77.3853 98.4807 74.5191 94.9924 70.2967C93.8471 68.7949 93.4237 66.0599 95.6278 65.2748C97.9132 64.3093 100.459 64.4318 102.886 64.2905Z" fill="#E6E2E2"/>
<path d="M93.6208 56.1102C96.1003 62.9635 100.307 67.4646 103.328 74.0652C106.311 80.0162 112.109 83.3612 118.126 85.5698C123.84 87.6005 129.283 90.1816 134.833 92.5679C137.379 93.8246 144.995 92.7188 144.818 94.5971C141.974 94.3357 137.265 96.0083 139.487 94.1947C133.882 89.1541 136.047 80.635 139.234 74.8513C142.361 69.984 144.929 63.2158 151.604 62.6703C154.59 62.157 157.911 63.9715 152.917 64.2693C147.654 66.5314 145.321 61.739 151.388 60.9531C155.239 59.4446 161.224 60.0076 156.31 64.5505C153.246 67.1223 142.687 66.7558 150.275 62.2583C151.973 60.9161 161.487 61.2106 154.854 62.9532C152.39 62.8533 142.96 63.6766 150.203 63.3786C153.457 62.4794 158.812 61.9392 153.777 65.7232C149.137 71.1911 143.611 73.9083 143.397 81.2823C142.343 85.8862 152.685 95.6584 144.191 96.0804C138.893 96.9444 139.044 98.0901 133.748 97.7691C128.195 95.9728 117.742 89.8521 112.075 88.2567C105.507 85.6912 98.6411 82.4756 95.2707 75.8749C92.312 70.6562 89.4268 65.3965 85.5012 60.8227C80.35 50.0095 90.2936 57.002 93.6208 56.1102Z" fill="#D1C2C2"/>
<path d="M148.327 94.8126L133.748 97.7692L105.724 86.6783L92.4701 73.339L84.0627 54.7162L83.2687 52.4619" stroke="black" stroke-width="2" stroke-linecap="round" stroke-linejoin="bevel"/>
<path d="M100.198 181.357L84.2346 182.904" stroke="black" stroke-width="2" stroke-linecap="round" stroke-linejoin="bevel"/>
<path d="M112.889 32.5986C111.227 34.3063 110.819 36.7956 109.527 38.7449C108.812 39.9682 106.771 38.3072 108.483 37.839C109.573 37.0081 111.32 37.5995 110.429 39.1156C110.126 41.045 109.763 43.0522 108.623 44.6868C108.263 46.347 106.313 47.2746 104.737 46.861C105.36 46.2115 107.575 46.7816 106.266 47.9766C105.483 49.0585 105.169 50.3951 104.476 51.5438C103.742 52.8937 103.031 54.316 101.965 55.4306C99.8582 57.0187 97.0979 56.969 94.5885 57.1273C95.0599 57.0636 97.1966 56.8542 95.7159 57.0617C94.5749 57.2431 93.1038 57.8171 92.1031 57.1368C92.6518 56.2557 94.6774 56.4996 94.9379 56.4734C94.3216 56.5105 92.3634 56.7256 94.0059 56.5535C94.5447 56.4931 96.4845 56.3077 94.9531 56.4561C94.3684 56.4495 96.3744 56.2856 96.8267 56.2314C98.5992 56.062 94.9306 56.5456 96.5256 56.0809C97.842 55.8395 99.0143 55.0781 100.33 54.8863C100.984 54.7847 101.631 54.9262 100.584 55.1044C99.1107 55.7513 97.7815 56.7392 96.1763 57.0663C94.5931 57.5727 96.8457 57.9171 97.1593 58.1332C96.5614 58.0956 94.4155 58.7796 95.156 57.6032C96.0756 56.8112 97.4728 56.031 98.6505 56.6997C99.2275 57.8797 97.4439 58.3424 97.3823 59.4911C96.7651 60.5875 95.0326 62.2814 93.8455 61.0133C93.3716 59.9986 94.5891 59.1637 95.0433 58.3311C95.7262 57.4154 96.8711 57.0665 97.9687 57.1763C99.3553 57.3641 97.2434 58.5024 96.7479 58.7541C95.3611 59.4123 93.2245 59.0653 92.6208 57.4982C93.0549 56.2721 95.1161 56.8672 95.984 55.87C97.3777 55.1499 98.8316 54.3658 100.441 54.3475C101.9 53.366 102.729 55.9756 100.868 55.8509C99.1566 56.3764 97.3913 56.7668 95.598 56.845C96.1477 56.6512 97.3833 56.7206 96.0581 56.7877C95.5315 56.812 93.7073 57.0277 95.1359 56.898C94.2992 57.0076 94.9215 56.9146 94.4421 56.8763C93.9523 56.8793 92.4317 57.0385 92.5507 56.9704C94.3835 56.6723 96.231 56.4446 98.0881 56.3795C97.6193 56.4783 95.3364 56.7183 96.9922 56.3618C98.36 56.1255 99.497 55.2298 100.172 54.0377C101.278 52.2564 102.236 50.3858 103.044 48.4513C103.612 47.2086 104.775 45.8305 106.302 46.1746C108.197 46.5094 103.823 47.1069 105.047 45.7598C105.747 44.6299 105.898 43.1459 106.537 41.9332C107.148 40.5178 107.95 39.1899 108.731 37.8731C109.449 36.5135 111.943 37.474 110.551 38.8275C109.845 39.787 107.757 40.33 107.449 38.7628C107.452 37.4565 107.871 35.9983 108.7 34.9672C110.041 34.2047 111.188 33.0322 112.7 32.6074L112.889 32.5986Z" fill="#D1C2C2"/>
<path d="M17.5888 136.317C23.6828 141.415 29.8359 146.463 36.2637 151.125C43.3174 157.63 49.2713 165.851 58.4214 169.598C64.0951 172.841 71.1235 174.43 77.8384 175.166C74.3188 181.903 73.4578 175.824 74.3946 175.702C79.0087 183.616 73.3663 174.883 73.4393 174.893C71.4366 174.885 87.4463 180.962 87.1526 179.678C91.948 178.539 88.4483 177.02 93.1468 178.393C91.7061 180.187 85.0078 179.047 90.329 178.636C94.1252 177.988 97.9648 177.632 101.807 177.399C100.123 177.803 93.3876 178.253 98.0851 177.376C99.855 176.402 104.665 177.259 100.616 178.118C98.7162 178.66 95.727 179.386 99.516 178.683C100.952 178.341 104.856 178.636 101.287 179.192C99.8515 179.488 94.749 179.891 95.5864 179.565C97.3691 179.211 100.802 179.308 97.0774 179.845C91.4006 180.939 84.385 184.559 78.8077 182.384C80.9417 181.034 87.0281 178.61 87.8908 178.683C83.7696 179.8 81.0699 182.948 76.8056 183.167C71.1585 182.39 78.8793 185.559 64.349 181.958C57.6095 180.377 53.1098 174.123 47.0634 170.988C41.2317 168.022 38.4698 163.379 34.1385 158.533C30.8282 154.938 26.3486 150.628 22.0133 148.26C17.6443 145.233 12.8261 142.392 8.6445 139.127C9.9434 135.312 14.9108 137.992 17.5888 136.317Z" fill="#D1C2C2"/>
<path d="M113.394 16.8754L92.5372 14.1124L68.9666 50.7895L39.6809 78.1808L23.1492 115.629L9.09125 138.941L31.2405 155.022C31.2405 155.022 49.4946 176.596 62.1878 181.27C74.0775 185.649 100.198 181.357 100.198 181.357L84.2345 182.904L115.869 200.29L141.335 149.442L159.365 129.62L181.724 64.9334L156.01 44.1732L135.492 66.7488L127.395 79.7345C127.395 79.7345 117.262 79.8642 112.998 77.5443C109.035 75.3882 104.211 68.1242 104.021 67.416C103.831 66.7077 117.948 41.6542 117.948 41.6542L113.394 16.8754ZM106.562 20.4136L106.622 21.3462L109.288 25.9707L108.493 34.6985L100.663 52.9263L93.436 55.4211L83.234 53.0407L86.5031 37.5724L93.6058 24.5805L106.562 20.4136ZM166.283 62.6758L169.139 73.2846L161.928 86.719L148.068 95.2616L143.253 78.7128L159.253 59.8145L166.283 62.6758Z" stroke="black" stroke-width="2" stroke-linecap="round" stroke-linejoin="bevel"/>
<path d="M106.622 21.3463C106.622 21.3463 112.526 35.5418 112.148 35.6431C111.769 35.7445 111.094 40.7909 111.094 40.7909" stroke="black" stroke-width="2" stroke-linecap="round" stroke-linejoin="bevel"/>
<path d="M159.253 59.8146L151.411 59.5909L145.578 65.8163L143.778 68.9341" stroke="black" stroke-width="2" stroke-linecap="round" stroke-linejoin="bevel"/>
<path d="M39.4735 157.087L31.2404 155.022L25.0719 151.011" stroke="black" stroke-width="2" stroke-linecap="round" stroke-linejoin="bevel"/>
<path d="M51.3891 142.542L54.9925 159.012" stroke="black" stroke-width="2" stroke-linecap="round" stroke-linejoin="bevel"/>
<path d="M71.4557 149.331L63.3234 162.862L63.5633 163.001" stroke="black" stroke-width="2" stroke-linecap="round" stroke-linejoin="bevel"/>
<path d="M81.3076 158.856L68.729 167.902" stroke="black" stroke-width="2" stroke-linecap="round" stroke-linejoin="bevel"/>
<path d="M123.39 127.512L109.729 148.404L102.751 157.167L98.3106 167.074L85.1705 170.999" stroke="black" stroke-width="2" stroke-linecap="round" stroke-linejoin="bevel"/>
<path d="M133.489 143.256L126.215 156.963L116.117 172.238L101.234 174.198" stroke="black" stroke-width="2" stroke-linecap="round" stroke-linejoin="bevel"/>
</svg>
