<svg width="81" height="113" viewBox="0 0 81 113" fill="none" xmlns="http://www.w3.org/2000/svg">
<path d="M45.6667 79.6801H45.4967C65.2734 77.4135 80.63 60.6401 80.63 40.2968C80.63 18.3668 62.8934 0.630127 40.9634 0.630127C19.0334 0.630127 1.29671 18.3668 1.29671 40.2968C1.29671 59.9601 15.5767 76.2235 34.3334 79.3401V101.667H0.333374V113H79.6667V101.667H45.6667V79.6801ZM12.63 40.2968C12.63 24.6568 25.3234 11.9635 40.9634 11.9635C56.6034 11.9635 69.2967 24.6568 69.2967 40.2968C69.2967 55.9368 56.6034 68.6301 40.9634 68.6301C25.3234 68.6301 12.63 55.9368 12.63 40.2968Z" fill="white"/>
</svg>
