<svg width="126" height="80" viewBox="0 0 126 80" fill="none" xmlns="http://www.w3.org/2000/svg">
<path d="M85.6666 34.3334C95.0733 34.3334 102.61 26.74 102.61 17.3334C102.61 7.92671 95.0733 0.333374 85.6666 0.333374C76.26 0.333374 68.6666 7.92671 68.6666 17.3334C68.6666 26.74 76.26 34.3334 85.6666 34.3334ZM40.3333 34.3334C49.74 34.3334 57.2766 26.74 57.2766 17.3334C57.2766 7.92671 49.74 0.333374 40.3333 0.333374C30.9266 0.333374 23.3333 7.92671 23.3333 17.3334C23.3333 26.74 30.9266 34.3334 40.3333 34.3334ZM40.3333 45.6667C27.13 45.6667 0.666626 52.2967 0.666626 65.5V74C0.666626 77.1167 3.21663 79.6667 6.33329 79.6667H74.3333C77.45 79.6667 80 77.1167 80 74V65.5C80 52.2967 53.5366 45.6667 40.3333 45.6667ZM85.6666 45.6667C84.0233 45.6667 82.1533 45.78 80.17 45.95C80.2833 46.0067 80.34 46.12 80.3966 46.1767C86.8566 50.88 91.3333 57.17 91.3333 65.5V74C91.3333 75.9834 90.9366 77.91 90.3133 79.6667H119.667C122.783 79.6667 125.333 77.1167 125.333 74V65.5C125.333 52.2967 98.87 45.6667 85.6666 45.6667Z" fill="#FFC5DE"/>
</svg>
