<svg width="125" height="114" viewBox="0 0 125 114" fill="none" xmlns="http://www.w3.org/2000/svg">
<path d="M113.667 18.6867L49.01 83.4001L24.9834 59.3734L32.9734 51.3834L49.01 67.4201L105.677 10.7534L113.667 18.6867ZM57 102.667C32.01 102.667 11.6667 82.3234 11.6667 57.3334C11.6667 32.3434 32.01 12.0001 57 12.0001C65.8967 12.0001 74.2267 14.6067 81.2534 19.0834L89.47 10.8667C80.2334 4.46341 69.07 0.666748 57 0.666748C25.72 0.666748 0.333374 26.0534 0.333374 57.3334C0.333374 88.6134 25.72 114 57 114C66.8034 114 76.04 111.507 84.0867 107.087L75.5867 98.5868C69.92 101.193 63.63 102.667 57 102.667ZM96.6667 74.3334H79.6667V85.6668H96.6667V102.667H108V85.6668H125V74.3334H108V57.3334H96.6667V74.3334Z" fill="white"/>
</svg>
