<svg width="126" height="86" viewBox="0 0 126 86" fill="none" xmlns="http://www.w3.org/2000/svg">
<path d="M63 0.5C34.6666 0.5 10.47 18.1233 0.666626 43C10.47 67.8767 34.6666 85.5 63 85.5C91.3333 85.5 115.53 67.8767 125.333 43C115.53 18.1233 91.3333 0.5 63 0.5ZM63 71.3333C47.36 71.3333 34.6666 58.64 34.6666 43C34.6666 27.36 47.36 14.6667 63 14.6667C78.64 14.6667 91.3333 27.36 91.3333 43C91.3333 58.64 78.64 71.3333 63 71.3333ZM63 26C53.5933 26 46 33.5933 46 43C46 52.4067 53.5933 60 63 60C72.4066 60 80 52.4067 80 43C80 33.5933 72.4066 26 63 26Z" fill="#FFC5DE"/>
</svg>
